<svg xmlns="http://www.w3.org/2000/svg" viewBox="0 0 561.4 563.36"><defs><style>.cls-1{fill:#d9c49e;}.cls-1,.cls-2{fill-rule:evenodd;}.cls-2{fill:#c49159;}</style></defs><g id="Layer_2" data-name="Layer 2"><g id="Layer_1-2" data-name="Layer 1"><path class="cls-1" d="M58.09,305.09c-5.05,3.55-11.59,12.81-13,17.31-9.35,30.2,20.1,39.58,33.75,54.52,9.24,10.11,13,19.9,17.31,30.29,1.93-21.48-17.48-42.74-19-64.91-1.17-16.63,8-27.78,23.37-32-1.19-1.5-2.53-2.1-2.6-4.33,2.86-1.38,4.17-2.43,6.92-3.46C90,296.59,69.67,296.93,58.09,305.09Zm12,148.59C50.43,442.83,47,436.79,38,431.83s-13.31-24.05.15-24.62c16.33-.69,16.64,23.85,25.1,35.48,2.51,3.44,8.79,5.57,13,9.52,10.49,9.87,15.17,24.4,33.7,23.22-12.88-8.8-16.46-11.26-23.31-18.89-9.65-10.76-17.9-25-25.1-39C53.91,402.81,48.61,386,40.78,373.46c-5-8-20.26-13-22.5-21.64-3.35-12.81,5.5-32.28,12.12-38.95C41,302.25,60.65,294.51,74.53,293c20.55-2.28,28.87,6,41.54,7.79.45-5.7-7.6-8.57-13-10.39-26.93-9.1-60.08-.73-74.43,13-6,6.61-9.39,12.31-13,20.77C12,332.77,12,343.05,8.76,351,5.61,358.55-.9,361.57.11,372.59c.73,8,5.57,19.11,9.52,28.56,10.92,26.14,28.28,53.18,39.8,74.43,5.57,10.25,8.88,26.8,6.93,36.1s-5.86,13.71-12.12,15c-15,3-21.19-16.89-28.56-24.23-.31,36.09,30.41,66.16,64.05,46.73,4.6-3.92,6.31-8,7.78-14.71,1.74,6.91,4.13,13.18,10.39,15.57C99.31,510,89.72,464.52,70.07,453.68ZM37.32,413.26C32.44,424.57,46.41,431,54.63,434.9,51.56,425,46.89,416.68,37.32,413.26ZM188.77,543.08c.1,1.06,40.85,28.3,48,16.47S205.38,549.26,188.77,543.08Zm96.06-355.69c.86-5.44-7.54-5.26-6.92,0C279.61,189.1,282.85,187.94,284.83,187.39Zm-13-22.5c-3.39,4.26,3.19,9.56,6.06,5.19C277,167.22,275.51,165,271.85,164.89Zm99.53,19c-11.84-16.07-47.09-10.76-59.72-25.1-4.64,13.36,5.95,23.42,8.66,29.42-8.11,1.71-18.13,1.5-22.51,6.93,18.13,8.7,32,21.64,53.66,26.83C371,219.86,383.05,199.78,371.38,183.93ZM288.3,155.37c2.63-.54,4.42-1.92,4.32-5.2C288.09,145.47,282.9,152.31,288.3,155.37ZM390.41,196c4.69.53,7-1.18,11.26-2.59,5.42-7.53,5.67-25,1.73-34.62-11.85.66-20.4-7.71-28.56-1.73-4.19,3.06-5.62,9.73-8.66,15.57,2.72,1,4.58,2.93,7.79,3.47,3.54-5.12,6.74-10.57,14.71-11.25C379.61,173.14,373.89,194.19,390.41,196ZM438.88,94.79a164.86,164.86,0,0,0,28.56,25.09c-4.59-6.17-10-18.43-15.69-27.06-8.95-13.59-18.06-22.58-22-18.16C423.38,81.87,433,88.16,438.88,94.79ZM330.7,261c9.08-6.5,16.07-15.08,17.31-29.43-2.45-1.3-4-3.49-7.79-3.46-6,2.64-5.39,11.92-6.92,19-7.45-6.06-2.31-15.59,0-23.36C309.73,218.65,316.62,257.93,330.7,261Zm-71-188.66c-2.12-4.81-3.9-10-7.79-13C253.79,64.38,254.57,70.53,259.74,72.29ZM406.86,228.93c4.53-.78,3.25,4.24,7.79,3.46,5.4-9.52-1.24-22.47-7.79-26.83-22.75-15.15-44.85,21.87-28.56,39.81-8.38-1.78-11.15-12.59-11.25-19.9-25.83,3.48-13,44.68,5.19,46.73,4.25-2.39,4.08-9.19,7.79-12.12,7.8,4.9,16.21,9.18,27.69,10.39.15-8.41,2.11-17.76.87-26C407.77,239.08,400.5,232.52,406.86,228.93Zm29.42,24.23c18.77,18.39,38.12,43.59,45.87,73.56,1.06,4.09,2.66,9,3.72,14.17,4.76-15.05-.88-35.7-7.18-47.05-13.45-24.23-39.75-41.66-54.52-61.45l-2.71-2.84C414.42,242.56,430.51,247.51,436.28,253.16ZM278.77,101.71c-3.65.39-9.39-1.32-9.52,2.6,8.75,12.89,29.81,24.29,49.93,28.51C305.32,123.69,284.82,115,278.77,101.71ZM11.36,151c7.52,34.86,26.45,69.86,51.06,94.33,3.18,3.17,8.38,5.38,12.11,8.66,20.29,17.79,41.36,39.08,71.83,43.27-9.08-9.53-22.68-13-33.75-19.91-11.36-7.06-20.53-15.95-29.42-25.1-11.25-.57-18.14-5.51-17.31-18.17-6.73-8.67-16.54-17-22.5-28.56-11.69-22.59-20-67.08-13.85-97.79C37,70.34,68.82,37.38,104.82,32.48c11.76-1.61,28.2-2.91,40.68.86,11.21,3.39,17.61,14.34,26,22.5,3.53-5.12,1.64-15.67,3.46-22.5C187,38.55,190,52.85,197.43,62.76c4.33-10.38,1.62-26.36,0-34.61C218,32.76,234.53,48,243.29,67.09c5.55,12.07,11.34,33.82,1.73,45.87-4.31,5.41-9.08,4.34-9.52,10.39-.3,4.12,4.12,7.82,4.33,12.11.5,10-7.53,19.58-16.44,19.91-5.8.21-10.91-3.27-14-11.22-1.38,3.86-2.6,13.57-2.25,16.9,1.13,10.74,10.67,17.89,24.86,15.95,15.82-12.63,21.55-35.31,24.23-58.85,6.73,18.71-.06,32.17-6,45-3.57,7.64-9.05,13.48-9.53,18.17-1,10.16,6.35,19,15.58,23.37-9.12-21.48,5.46-45.6,6.93-65.78.62-8.64-.67-19.3-1.73-26.83-4.23-29.73-17.41-67-38.08-80.48-17.59-11.45-38.28-15-61.45-24.23,30.14,2.46,52.1,13.1,74.43,23.36,44.75,11.81,110.07,28.11,154.91,9.52-39.12,28.43-103.65,7.09-149.72-1.73,3.1,8,15.39,9,26,11.25C287.39,54,308.63,57.71,330.7,61c29.88,4.51,66.19,7.16,79.62-12.11a25,25,0,0,0-.86-29.43c-4.52-5.78-13.51-9.91-19.91-13,3,18.47-9.89,32.6-28.56,29.43-5.76-3.07-1.31-11.45-6.06-14.72-10.86.11-22.22,10.48-30.54,9.36s-4.93-9.65-9.27-11.09c-10-1.36-19.88,4.72-31.15,6.06C234.6,31.42,203.68-4.4,152.42.45,121.47,3.39,92.53,17.2,71.94,30.74,51.16,44.41,41.14,57.6,32.13,80.94c2.59-22-2.31-41.44-15.58-50.2-3.86,30.1-8.48,61.06-7.79,90.87C9,131,9.48,142.36,11.36,151ZM149.82,326.72c20.78-6.38,30.36,11.55,39.81,18.17,17.89,12.54,47.36,17.82,71,19.91-.12-9.28-6.94-17.2-12.12-23.36-5.39-6.42-10.74-13.6-16.44-19-19.93-19-48.6-29.83-68.37-48.47-3.32-3.13-6.93-8.7-10.38-13-11.63-14.39-17-28.68-23.37-49.33,0-.53-.13-1-.87-.86-11,12.14,1.61,35,1.74,46.73-6.08-3.45-10-9.09-17.31-11.25,3.43,11.15,12,21.4,20.77,29.42,11.94,10.93,28,18.26,40.67,27.69,10.72.78,19.17,5.57,26,13,3.58,3.9,6.05,10.05,10.38,11.25s7.81-1.85,11.25-.87c5.31,1.51,4,5.55,7.79,10.39,3.36,2.85,13.8,2.72,11.25,8.65-4.17,2.05-9.18,0-12.79-3.73-2.7-2.81-4.14-7.06-6.46-8.7-5.41-3.84-8.92.68-14.15-.81s-7.35-7.28-10.15-10.32c-15.73-17.05-51.52-19.33-78.47-15.38-3.15.46-6.43.65-9.52,2.59,4.37,4.28,12.64,4.67,15.57,10.39-4.21,4.47-9.79,4.22-9.52,12.12.43,12.53,19.57,17.53,30.29,24.23,14.82,9.25,24.61,22.55,32.89,35.48,6.26-26.36-36.2-37.16-37.21-52.79C141.68,333.28,145.79,328,149.82,326.72ZM504.65,466.06c-.67.19-1.71,0-1.73.86,12.88,6.16,31.15,23.56,38.08,39.81,5.37,12.59,4.23,22.31-2.84,31.53-14.91-5.82-15.32,11.54-2.35,9.15,6.62-1.23,12.52-13.31,13.85-19.91C554.31,504.31,526.15,466.2,504.65,466.06ZM39.92,243.64c-1.87-8.47,2.25-20.38-6.93-23.37-5.49,29.2,12,64.36,40.68,60.58C58.07,270,44.07,262.51,39.92,243.64ZM367.05,531.83c-20.56-2.23-39.3,6.33-44.14,20.77,21.77,2,44.11-17.3,71.83-9.52C390.61,535.48,377.15,532.93,367.05,531.83ZM547.92,22.09a13.53,13.53,0,0,1,6.85-8.4C546.32,4.85,525.22.1,511.58.45c-29,.75-50,18.47-53.66,44.14C455,24.7,452.07,4.86,432,2.18c15.36,19.78,13.82,47.2,20.77,73.57,6.83,25.93,22,48.76,36.35,65.77-.37-16.84-12.71-24.44-18.18-39.81C460,71,463,24.83,489.08,11.71,512.36,0,548.3,13.33,547.92,41.13c-.21,15.39-14.48,26.95-29.46,22.49s-15.65-14-12.94-27.68c-11,3.81-16.45,17-17.31,28.56-1.86,25.22,23.12,41.81,45.87,27.69C518.22,90.54,500.75,85.1,497.73,68c14.08,20.61,52,25.56,61.45-.87C566.36,46.93,554.42,34.41,547.92,22.09Zm-24.23,90c-11.9,1.38-15,14.33-15.58,29.43-5.8-4.3-5.36-14.83-12.11-18.17-4.28,25.53,8.33,34.26,13.85,48.46,6.34,16.33,12.28,40.71,10.38,63.18-1.12,13.31-8.57,28-5.19,40.67,1.17,4.42,6.93,6.45,6.06,13-.7,5.2-9.3,9.1-10.39,14.71-1.86,9.57,2.16,18.13-7.79,19.91,3.94-12.53-.5-30.45,12.12-35.48-16.81-13.39.92-40.94-.87-66.64-1.75-25.17-8.6-45.6-19.9-64-9-9.3-27.59-8.36-35.48.86-5.72,6.68-6.1,21.07-4.33,33.76,3,21.61,20.21,47.51,26.82,58-.54-14.46-7.27-22.72-6.92-38.08,17.32-18.27,29.37,13.87,31.16,32,2.45,24.87-11.64,58.84-11.25,82.22.19,12-5.22,22-6.06,29.42,15.07-19.82,37.63-38.33,43.27-71,2.86-16.56,5.22-36.32,4.33-55.39-.69-14.79-4.51-30.31-6.06-44.14-2.32-20.69,10-57.3,27.69-34.62C556.4,132,542.32,110,523.69,112.09ZM500.33,475.58c1.92,10.65,7.34,16.27,6.92,27.69-1.73,47.62-69.25,61.28-90.87,26,8.89,9.13,25.38,15.5,40.91,15.15,13.33-.31,25.84-6,33.52-14.28,29.4-39.26-9.43-85-52.79-73.56,13.28-9.63,32.24-6.89,44.13-.87,4.35,2.21,5.34,5.47,9.52,6.06,5.07.71,16.85-2.19,22.5-4.33,11.2-4.24,27.62-15.31,30.29-22.5,3.91-10.5-4-24.49-13-27.69-14.7-5.27-26.82,3.92-38.08,8.65,6.73,7.22,31.76-7.85,31.16,10.39-.22,6.56-6.51,14.88-20.7,16.23-16.32,1.27-29.44.81-45.94,1.08-35.8.57-55.71,31.23-79.62,38.94C395.83,466.28,417.14,453.84,438,441c10.52-11.15,24.13-24.8,38.94-40.68,13.67-14.66,23.12-33.7,36.35-43.27,4.45-3.22,10-6.42,17.3-5.19,17.46,2.91,8.74,23.34-6.9,31.35,7.62-.79,20.88-9.73,23.24-14.14,6.93-12.94-1.87-33.26-18.07-34.52-8.85-.69-17.85,5.38-23.36,9.52-21.52,16.18-38.09,64.15-60.58,77,3.19-3.7,8-12.2,11.47-19.54,11.12-23.23,20.28-57.84,11-78.25-1.71,3.2-2.52,7.3-6.93,7.79-9.15-5.85-14-16-25.09-19.9,7.16,19.14,16.78,31.85,17.31,56.25,1,44.7-29.82,73.61-56.26,96.93-26.64,23.48-54.58,45.48-85.67,55.38,11.3-14.53,19.62-29.39,22.5-47.59.82-5.19-.52-10.45.86-15.58,2-7.59,7.95-12.89,8.66-19.91,1.67-16.44-8.21-36.67-14.72-45-9.76-12.5-48.35-33.3-19-48.46-6.31-10.13-33.65-15.81-40.68-3.47-3.45,6.05-3.41,18.85-.87,24.24,4.64,9.81,19.18,9.94,29.43,18.17,8.32,6.67,7.64,16.08,7.79,26.83,4.07,2.6,8.39,3.28,13,3.46,5.8,3.08,4.12,11.2,6.92,16.44,2.47,4.62,10.93,6.27,7.79,12.12-9.75,1-14.87-9.88-16.44-19.91-7.07-4.26-16.16-3.43-18.18-11.25-.88-3.42,1.58-7.8.87-12.11-1.81-11-19.08-18.26-30.29-22.5-4.73-1.79-10.8-4.19-14.71-5.2-7-1.8-27.06-3.41-32-2.59-9.11,1.5-21.61,11.69-21.64,21.63,0,6.53,5,17.23,8.65,21.64,9.62,11.5,28.5,16.91,45.87,21.63-6.52-9.95-29.1-12.75-28.56-29.42.24-7.22,6.48-11.54,15.58-10.38,24.34,3.1,30.91,30.83,49.33,46.73,11.48,9.9,32,13.46,35.48,27.69,2.07,8.42-2.7,21-6.92,28.56-10.26,18.45-35.58,35.52-57.12,38.08-48.54,5.77-94.8-3.08-120.29-23.37,27.6,12.88,92,13.13,118.56-.86-35.26.95-62.28-13.68-93.47-11.25-7.88,3.16-15.76,7-24.23,6.92-18.78-.18-32.64-17.3-45.87-20.77-.64,8.68,8.58,11.34,13.85,16.44,12.68,12.28,28,30.17,33.75,45.87a18.26,18.26,0,0,1-2.34,16.82c5.24,0,8.94-3.55,11.07-7.83s-.21-12.24-2.23-17.29c-7.63-19-27.65-26.92-37.65-40.16,29.45,24.09,65.56,40,112.5,44.13,67.5,5.94,111.75-30,150.59-54.52,16-10.12,39.18-19.2,59.71-23.36,30.29-6.15,60.18,12,55.39,43.27-5.35,34.91-69.64,11.72-46.73-19-24.87-7.16-32.93,14.83-38.08,32.88-3.55-4.08-4.44-9.07-11.25-10.38-6-1.15-15.17,2.11-19,6.06,21.63,16.18,40.56,46.38,78.75,45,27.11-1,52.53-21.2,56.26-48.46C513.83,497.18,509.15,483.05,500.33,475.58ZM118.59,217.52a13.85,13.85,0,0,1,2.28-7.43,126.92,126.92,0,0,1-11.06-7.57c-5.6-4.24-10.1-10.13-14.59-15.54-1.12-1.35-2.07-2.37-1.71-4.37.52-2.8,2.51-.7,1.79-5.61s-4.66-4.83-5-8.26c-.39-4.06,1.44-8,6.71-8.18,7.78-.23,11.41,11.83,18.18,13.85,21.44,6.39,17.92-20.38,22.5-34.62,2.81-8.76,9.53-13.39,9.52-19.91-4.62.57-5.59,4.8-9.52,6.06-1.73-.87-1.37-3.82-4.33-3.46-10.26,5.26-4.34,28.91-17.31,29.42-4.13.17-9.29-6.08-10.38-10.38-4-15.88,9.88-20.42,18.17-30.29C134.22,98.9,131,85.1,136,74c-2.22.59-3.9-1.13-6.06-.87-5.24.64-23.84,9.45-26.83,13-8.44,10-3.4,34.33-8.65,45-3.78,7.67-14.61,9.59-16.45,1.74-3-13.06,10.71-22.17,4.33-32.89-4.16-.7-3.12,3.8-7.79,2.6-4-5.81,1.16-20.78-8.65-20.78.44,23.36-30.72,61.64-8.31,72.45,3.27,1.58,9.18,2.29,12.33,4.32s5.14,5.94,5.43,10.7c.13,2.25-.85,3.82-.7,6.87s2.23,4.35,4.11,5.72c3.15,2.28,7.27,3.58,10.5,6.39C98.83,196.59,100.87,207.67,118.59,217.52ZM73.8,234.28c-4.12,2.55-1.25,6.85-.13,9.36,8.34,7.59,17.88-4.69,19-10.38C97.36,210.33,71,190,50.3,203.83c4.78,5.11,12.3-.05,19,.87,8.29,1.13,15.46,5.88,17.87,13.82.85,2.82,1.08,6.76-1.56,11.7S77.91,231.74,73.8,234.28Zm86.76-6.61c-1.06-2.58-2.27-5.15-2.87-6.82-4.4-.15-13,0-18.64-2.27l2.88,7.88C147.84,228.12,152.41,228,160.56,227.67ZM111.75,49.78C105.38,40.39,83.57,41,78,50.65,87.69,47.08,103.1,50.28,111.75,49.78ZM234.64,188.25c-6.76.27-14,7.32-19,12.12C221.6,205.23,233.15,196.23,234.64,188.25Z"/><path class="cls-2" d="M364.45,280c-5.55-3.44-20.72-14.67-25.1-14.71-5,0-5.58,4.81-10.38,5.19-4.41-6.55-10.64-11.29-14.71-18.18-41.42-16.2-97.8-26.49-120.3-59.71-9.24-13.66-15.74-28.41-11.25-46.73,6.58-26.83,32.51-43.9,60.58-50.2-.46-5.6.08-12.19-3.46-14.71-33.3,3.53-65.77,30.53-76.16,49.33C138,176.74,166.1,234,191.37,261c17.81,19,40.54,34.69,67.5,46.73,26.3,11.76,54.87,19.2,78.75,35.49,21,14.33,46.35,39.73,45.87,68.36-.44,26.53-23.81,42-44.14,51.93a63.78,63.78,0,0,1-.86,13.85c21.1-5.31,41.19-14.48,55.39-27.7,17-15.88,31.5-45,30.29-77.89C422.51,326.43,394.22,298.44,364.45,280ZM144.63,413.26c-8-6.83-14.1-17.25-22.5-21.63,3.42,30.33,8.58,58.93,13,88.27,7.55-3.7,11.17-8.36,18.18-11.25,25.54-10.54,52.38,2.8,73.56,8.66,27.74,7.67,60,9,92.6,4.32,1.24-4.49,2.35-9,0-13C250.09,476,182.65,445.72,144.63,413.26ZM394.74,145a103.26,103.26,0,0,1,9,5.41,18.86,18.86,0,0,1,4.83-1.08c-.59,17.06,13.13,24.33,21.63,29.42-5.78-31.14-14-59.88-21.63-89.14C398.3,96.82,391,105.07,374,103.44c-24.62-2.36-50-20.84-78.75-23.37-12.41-1.09-23.54-1.84-33.75.87-1,3.79.86,11.64,3.46,14.71C321,96,358.84,121.63,394.74,145Z"/></g></g></svg>